<svg height="100" viewBox="0 0 327 100" fill="none" xmlns="http://www.w3.org/2000/svg">
<path d="M286.915 79.4858C286.432 79.4858 286.001 79.3245 285.625 79.0019C285.302 78.6255 285.141 78.1954 285.141 77.7115C285.141 77.5502 285.168 77.362 285.222 77.1469C285.329 76.9318 285.491 76.663 285.706 76.3404L297.032 61.1498C298.448 59.2505 298.454 56.6481 297.047 54.7421L286.674 40.6918C286.512 40.423 286.378 40.181 286.27 39.966C286.216 39.7509 286.19 39.5358 286.19 39.3207C286.19 38.8368 286.351 38.4336 286.674 38.111C287.05 37.7346 287.48 37.5464 287.964 37.5464H294.981C295.626 37.5464 296.11 37.7077 296.432 38.0303C296.755 38.3529 296.997 38.6486 297.158 38.9175L306.272 51.0154L315.386 38.9175C315.601 38.6486 315.843 38.3529 316.112 38.0303C316.434 37.7077 316.918 37.5464 317.564 37.5464H324.258C324.742 37.5464 325.145 37.7346 325.467 38.111C325.844 38.4336 326.032 38.8099 326.032 39.2401C326.032 39.5089 325.978 39.7509 325.871 39.966C325.817 40.181 325.709 40.423 325.548 40.6918L315.04 54.8782C313.619 56.7957 313.633 59.42 315.073 61.3229L326.435 76.3404C326.65 76.663 326.785 76.9318 326.839 77.1469C326.946 77.362 327 77.5502 327 77.7115C327 78.1954 326.812 78.6255 326.435 79.0019C326.113 79.3245 325.709 79.4858 325.226 79.4858H317.886C317.295 79.4858 316.838 79.3514 316.515 79.0826C316.192 78.7599 315.924 78.4642 315.709 78.1954L306.03 65.3716L296.191 78.1954C295.975 78.4642 295.707 78.7599 295.384 79.0826C295.115 79.3514 294.658 79.4858 294.013 79.4858H286.915Z" fill="white"/>
<path d="M272.586 79.4858C272.048 79.4858 271.591 79.2976 271.215 78.9212C270.838 78.5449 270.65 78.0878 270.65 77.5502V39.4821C270.65 38.9444 270.838 38.4873 271.215 38.111C271.591 37.7346 272.048 37.5464 272.586 37.5464H279.28C279.871 37.5464 280.328 37.7346 280.651 38.111C281.027 38.4873 281.216 38.9444 281.216 39.4821V77.5502C281.216 78.0878 281.027 78.5449 280.651 78.9212C280.328 79.2976 279.871 79.4858 279.28 79.4858H272.586Z" fill="white"/>
<path d="M202.589 94.8098C202.159 94.8098 201.782 94.6485 201.46 94.3259C201.137 94.0033 200.976 93.6269 200.976 93.1968C200.976 92.9817 200.976 92.7666 200.976 92.5516C201.03 92.3903 201.137 92.1752 201.299 91.9064L207.589 76.9856L192.104 40.4499C191.889 39.9122 191.781 39.5358 191.781 39.3207C191.835 38.8368 192.023 38.4336 192.346 38.111C192.669 37.7346 193.072 37.5464 193.556 37.5464H200.089C200.734 37.5464 201.218 37.7077 201.54 38.0303C201.863 38.3529 202.105 38.7024 202.266 39.0788L212.993 65.4522L224.043 39.0788C224.204 38.6486 224.446 38.2992 224.768 38.0303C225.091 37.7077 225.575 37.5464 226.22 37.5464H232.672C233.103 37.5464 233.479 37.7077 233.802 38.0303C234.178 38.3529 234.366 38.7293 234.366 39.1594C234.366 39.4821 234.259 39.9122 234.044 40.4499L211.219 93.2774C211.004 93.7076 210.735 94.0571 210.412 94.3259C210.09 94.6485 209.606 94.8098 208.961 94.8098H202.589Z" fill="white"/>
<path d="M178.906 79.4861C178.368 79.4861 177.911 79.2979 177.535 78.9215C177.158 78.5452 176.97 78.0881 176.97 77.5505V24.1583C176.97 23.6206 177.158 23.1636 177.535 22.7872C177.911 22.4108 178.368 22.2227 178.906 22.2227H185.6C186.137 22.2227 186.595 22.4108 186.971 22.7872C187.347 23.1636 187.535 23.6206 187.535 24.1583V77.5505C187.535 78.0881 187.347 78.5452 186.971 78.9215C186.595 79.2979 186.137 79.4861 185.6 79.4861H178.906Z" fill="white"/>
<path d="M121.694 79.4857C121.264 79.4857 120.86 79.3244 120.484 79.0018C120.161 78.6792 120 78.2759 120 77.792C120 77.577 120.054 77.335 120.161 77.0662L139.599 25.0451C139.76 24.5074 140.056 24.0504 140.486 23.674C140.97 23.2439 141.615 23.0288 142.421 23.0288H151.213C152.019 23.0288 152.637 23.2439 153.068 23.674C153.498 24.0504 153.82 24.5074 154.035 25.0451L173.473 77.0662C173.527 77.335 173.553 77.577 173.553 77.792C173.553 78.2759 173.392 78.6792 173.07 79.0018C172.747 79.3244 172.371 79.4857 171.94 79.4857H164.924C164.171 79.4857 163.606 79.3244 163.23 79.0018C162.907 78.6254 162.692 78.276 162.585 77.9533L158.794 68.1137H134.84L131.049 77.9533C130.942 78.276 130.7 78.6254 130.324 79.0018C130.001 79.3244 129.463 79.4857 128.71 79.4857H121.694ZM137.663 58.8386H155.971L146.777 33.9169L137.663 58.8386Z" fill="white"/>
<path fill-rule="evenodd" clip-rule="evenodd" d="M231.706 58.1289L239.5 77.4695C239.769 78.0072 240.092 78.4911 240.468 78.9212C240.898 79.2976 241.544 79.4858 242.404 79.4858H248.372C249.233 79.4858 249.878 79.2976 250.308 78.9212C250.738 78.4911 251.061 78.0072 251.276 77.4695L266.438 40.0466C266.492 39.7778 266.519 39.5358 266.519 39.3207C266.519 38.8368 266.331 38.4336 265.955 38.111C265.632 37.7346 265.256 37.5464 264.825 37.5464H258.212C257.567 37.5464 257.083 37.7346 256.76 38.111C256.437 38.4336 256.222 38.7562 256.115 39.0788L245.388 67.3879L237.077 45.4535L231.706 58.1289Z" fill="white"/>
<path fill-rule="evenodd" clip-rule="evenodd" d="M50 0C22.3858 0 0 22.3855 0 50C0 77.6145 22.3858 100 50 100C77.6142 100 100 77.6145 100 50C100 22.3855 77.6142 0 50 0ZM21.5482 21.5484C16.6667 26.4296 16.6667 34.2866 16.6667 50C16.6667 65.7134 16.6667 73.5704 21.5482 78.4516C26.4298 83.3333 34.2865 83.3333 50 83.3333C65.7135 83.3333 73.5702 83.3333 78.4518 78.4516C83.3333 73.5704 83.3333 65.7134 83.3333 50C83.3333 34.2866 83.3333 26.4296 78.4518 21.5484C73.5702 16.6667 65.7135 16.6667 50 16.6667C34.2865 16.6667 26.4298 16.6667 21.5482 21.5484Z" fill="white"/>
<path d="M61.1111 38.8889C61.1111 37.8563 61.1111 37.34 61.1965 36.9107C61.5472 35.1476 62.9254 33.7694 64.6885 33.4187C65.1178 33.3333 65.6341 33.3333 66.6667 33.3333C67.6992 33.3333 68.2155 33.3333 68.6448 33.4187C70.4079 33.7694 71.7861 35.1476 72.1368 36.9107C72.2222 37.34 72.2222 37.8563 72.2222 38.8889V44.4444C72.2222 45.477 72.2222 45.9933 72.1368 46.4226C71.7861 48.1857 70.4079 49.5639 68.6448 49.9146C68.2155 50 67.6992 50 66.6667 50C65.6341 50 65.1178 50 64.6885 49.9146C62.9254 49.5639 61.5472 48.1857 61.1965 46.4226C61.1111 45.9933 61.1111 45.477 61.1111 44.4444V38.8889Z" fill="white"/>
<path d="M41.6667 38.8889C41.6667 37.8563 41.6667 37.34 41.7521 36.9107C42.1028 35.1476 43.481 33.7694 45.244 33.4187C45.6734 33.3333 46.1897 33.3333 47.2222 33.3333C48.2548 33.3333 48.7711 33.3333 49.2004 33.4187C50.9635 33.7694 52.3417 35.1476 52.6924 36.9107C52.7778 37.34 52.7778 37.8563 52.7778 38.8889V44.4444C52.7778 45.477 52.7778 45.9933 52.6924 46.4226C52.3417 48.1857 50.9635 49.5639 49.2004 49.9146C48.7711 50 48.2548 50 47.2222 50C46.1897 50 45.6734 50 45.244 49.9146C43.481 49.5639 42.1028 48.1857 41.7521 46.4226C41.6667 45.9933 41.6667 45.477 41.6667 44.4444V38.8889Z" fill="white"/>
</svg>
